HIERARCHY
ROOT SimulationBone
{
	OFFSET 0.000000 0.000000 0.000000
	CHANNELS 6 Xposition Yposition Zposition Zrotation Yrotation Xrotation 
	JOINT Hips
	{
		OFFSET 0.000000 0.000000 0.000000
		CHANNELS 6 Xposition Yposition Zposition Zrotation Yrotation Xrotation 
		JOINT LeftUpLeg
		{
			OFFSET 0.103459 1.857839 10.548500
			CHANNELS 3 Zrotation Yrotation Xrotation
			JOINT LeftLeg
			{
				OFFSET 43.500004 -0.000053 -0.000011
				CHANNELS 3 Zrotation Yrotation Xrotation
				JOINT LeftFoot
				{
					OFFSET 42.372192 0.000015 -0.000008
					CHANNELS 3 Zrotation Yrotation Xrotation
					JOINT LeftToe
					{
						OFFSET 17.300007 0.000002 0.000013
						CHANNELS 3 Zrotation Yrotation Xrotation
						End Site
						{
							OFFSET 0.000000 0.000000 0.000000
						}
					}
				}
			}
		}
		JOINT RightUpLeg
		{
			OFFSET 0.103460 1.857826 -10.548500
			CHANNELS 3 Zrotation Yrotation Xrotation
			JOINT RightLeg
			{
				OFFSET 43.500046 -0.000019 0.000011
				CHANNELS 3 Zrotation Yrotation Xrotation
				JOINT RightFoot
				{
					OFFSET 42.372261 0.000004 0.000012
					CHANNELS 3 Zrotation Yrotation Xrotation
					JOINT RightToe
					{
						OFFSET 17.299995 -0.000004 0.000006
						CHANNELS 3 Zrotation Yrotation Xrotation
						End Site
						{
							OFFSET 0.000000 0.000000 0.000000
						}
					}
				}
			}
		}
		JOINT Spine
		{
			OFFSET 6.901963 -2.603745 -0.000005
			CHANNELS 3 Zrotation Yrotation Xrotation
			JOINT Spine1
			{
				OFFSET 12.588102 0.000012 0.000012
				CHANNELS 3 Zrotation Yrotation Xrotation
				JOINT Spine2
				{
					OFFSET 12.343202 0.000010 -0.000009
					CHANNELS 3 Zrotation Yrotation Xrotation
					JOINT Neck
					{
						OFFSET 25.832901 -0.000008 0.000006
						CHANNELS 3 Zrotation Yrotation Xrotation
						JOINT Head
						{
							OFFSET 11.766603 0.000007 -0.000001
							CHANNELS 3 Zrotation Yrotation Xrotation
							End Site
							{
								OFFSET 0.000000 0.000000 0.000000
							}
						}
					}
					JOINT LeftShoulder
					{
						OFFSET 19.745903 -1.480391 6.000108
						CHANNELS 3 Zrotation Yrotation Xrotation
						JOINT LeftArm
						{
							OFFSET 11.284125 -0.000031 -0.000021
							CHANNELS 3 Zrotation Yrotation Xrotation
							JOINT LeftForeArm
							{
								OFFSET 33.000046 0.000024 0.000034
								CHANNELS 3 Zrotation Yrotation Xrotation
								JOINT LeftHand
								{
									OFFSET 25.200014 0.000020 0.000007
									CHANNELS 3 Zrotation Yrotation Xrotation
									End Site
									{
										OFFSET 0.000000 0.000000 0.000000
									}
								}
							}
						}
					}
					JOINT RightShoulder
					{
						OFFSET 19.746098 -1.480371 -6.000075
						CHANNELS 3 Zrotation Yrotation Xrotation
						JOINT RightArm
						{
							OFFSET 11.284128 -0.000021 -0.000009
							CHANNELS 3 Zrotation Yrotation Xrotation
							JOINT RightForeArm
							{
								OFFSET 33.000095 0.000034 0.000006
								CHANNELS 3 Zrotation Yrotation Xrotation
								JOINT RightHand
								{
									OFFSET 25.199781 0.000147 0.000427
									CHANNELS 3 Zrotation Yrotation Xrotation
									End Site
									{
										OFFSET 0.000000 0.000000 0.000000
									}
								}
							}
						}
					}
				}
			}
		}
	}
}
MOTION
Frames: 15
Frame Time: 0.016667
-292.423498 0.000000 -380.208039 0.000000 -82.838828 0.000000 -1.297926 88.493141 0.922109 89.937414 1.668159 -176.639144 164.652980 -13.334195 173.023295 -77.213129 3.671866 -2.937693 69.800564 0.128734 -5.418539 21.454555 0.003091 0.000003 158.425582 -6.649696 -165.522777 -31.520140 -3.340421 4.773068 86.318359 -3.999006 -3.902997 21.454560 -0.003106 -0.000018 6.936032 0.357677 -0.099820 3.858702 0.718373 -0.187799 3.540576 0.717371 -0.192127 2.193938 9.826666 0.612701 -29.694909 -8.428994 6.883951 -165.765028 -82.657957 -15.968975 -31.390695 60.467034 17.511265 -37.959496 -15.153041 1.415675 10.004630 -6.116484 -5.734663 179.930911 74.793928 1.319948 14.508600 -56.955528 -43.551280 -38.982925 13.956097 -1.391172 9.845749 -0.642065 -2.650567 
-292.255479 0.000000 -378.206572 0.000000 -83.895901 0.000000 -1.393558 89.055292 0.831704 89.803261 1.265981 -177.160579 162.111114 -12.018631 172.696339 -78.419827 3.620262 -3.562549 69.934988 0.760703 -4.908961 21.454551 0.003089 0.000001 160.366773 -7.017330 -167.031730 -29.969217 -3.449994 4.533741 86.530665 -3.761208 -3.587729 21.454560 -0.003106 -0.000017 6.879732 0.231950 0.134162 3.747183 0.459439 0.275671 3.429090 0.461234 0.272896 2.813340 9.539265 0.960701 -29.322400 -8.103463 6.936547 -162.710153 -82.339274 -19.063235 -28.465126 60.850482 21.372756 -36.250716 -13.969534 1.299253 10.417850 -2.844168 -3.253490 178.301027 74.866629 -0.347470 12.304386 -56.655613 -41.889836 -40.405378 14.390313 -1.456169 9.534682 0.513244 -2.491750 
-292.066556 0.000000 -376.195725 0.000000 -84.984876 0.000000 -1.468315 89.593483 0.735913 89.704116 0.897533 -177.771181 159.715818 -10.820907 172.189629 -78.878439 3.487941 -4.023509 69.709627 1.290966 -4.323712 21.454545 0.003087 -0.000001 162.446323 -7.281696 -168.391757 -28.268941 -3.578291 4.104182 86.673249 -3.405427 -3.306745 21.454560 -0.003107 -0.000016 6.822960 0.117757 0.365007 3.633773 0.224115 0.733475 3.315719 0.228673 0.732112 3.334354 9.153759 1.370821 -28.621377 -7.769410 7.015789 -160.322022 -82.043808 -21.484960 -24.824984 61.310255 25.361191 -35.009459 -12.772668 1.190927 10.821052 -0.208002 -0.149718 176.719001 75.202899 -1.958982 10.071988 -56.572481 -40.219967 -41.797106 14.877916 -1.526098 9.303397 1.536105 -2.712380 
-291.855516 0.000000 -374.173814 0.000000 -86.103369 0.000000 -1.521784 90.075215 0.664993 89.618456 0.697385 -178.333774 157.410425 -9.863482 171.763180 -78.804163 3.363682 -4.273475 69.816438 1.428256 -4.475174 21.454541 0.003088 -0.000002 164.623635 -7.513494 -169.705888 -26.449818 -3.558789 3.636950 86.779382 -3.031824 -3.044848 21.454556 -0.003105 -0.000016 6.759841 0.048006 0.571117 3.507226 0.078881 1.143398 3.189203 0.085920 1.142909 3.610368 8.804263 1.814200 -27.388817 -7.532851 7.164474 -157.812880 -81.827637 -24.029715 -20.555322 61.891571 29.325568 -34.201178 -11.513877 1.089842 11.353775 2.153424 3.288028 175.173526 75.790808 -3.525121 7.755951 -56.710978 -38.532659 -43.123236 15.379526 -1.596529 8.971478 2.521134 -3.078475 
-291.622052 0.000000 -372.136051 0.000000 -87.246807 0.000000 -1.580727 90.462479 0.607134 89.442996 0.642277 -178.814545 155.139974 -9.090510 171.514697 -78.146987 3.179640 -4.330202 70.426209 1.308340 -5.035847 21.454543 0.003090 -0.000002 166.661738 -7.667999 -170.879981 -24.748576 -3.422914 3.127464 86.959119 -2.629936 -2.789910 21.454553 -0.003103 -0.000017 6.665030 0.015655 0.759384 3.317299 0.009813 1.518898 2.999318 0.019123 1.518822 3.919586 8.549550 2.276935 -26.095756 -7.397500 7.398079 -155.873028 -81.608513 -25.999044 -15.504040 62.444777 33.902504 -33.772952 -10.585234 1.020884 12.187927 4.486324 6.402394 173.797140 76.361496 -4.915995 5.540188 -56.764754 -36.759920 -44.638096 15.837588 -1.669913 8.547495 3.361023 -3.574552 
-291.370721 0.000000 -370.077191 0.000000 -88.408175 0.000000 -1.672715 90.725544 0.544986 89.090507 0.667238 -179.219492 152.867008 -8.417920 171.472756 -76.819153 2.841069 -4.235207 71.461597 1.149294 -5.475209 21.454548 0.003091 -0.000001 168.332248 -7.695101 -171.786396 -23.409964 -3.250657 2.529499 87.324199 -2.165388 -2.534391 21.454554 -0.003105 -0.000018 6.521946 0.003908 0.941806 3.030924 -0.016460 1.883398 2.713016 -0.004954 1.883471 4.471756 8.407744 2.740529 -25.187334 -7.350934 7.715256 -155.041908 -81.310702 -26.847598 -9.675035 62.764555 39.527384 -33.653174 -10.319012 1.001418 13.364185 6.840947 8.619587 172.827607 76.679048 -5.896152 3.637036 -56.463773 -34.861705 -46.589002 16.194201 -1.751114 8.092644 3.910373 -4.221344 
-291.107619 0.000000 -367.994739 0.000000 -89.577853 0.000000 -1.794629 90.873306 0.490565 88.620768 0.688993 -179.606441 150.623524 -7.828513 171.579557 -74.847760 2.311575 -4.052621 72.357527 1.049358 -5.572637 21.454553 0.003089 0.000001 169.652910 -7.574591 -172.383046 -22.509116 -3.116506 1.807865 87.914834 -1.615604 -2.291166 21.454557 -0.003109 -0.000019 6.369121 -0.003815 1.122212 2.725066 -0.033537 2.244033 2.407246 -0.019859 2.244198 4.778199 8.330674 3.165154 -24.331726 -7.430490 8.084104 -153.870007 -80.949059 -28.043948 -3.684217 62.899948 45.303905 -33.721828 -10.366908 1.005481 14.445375 8.594220 9.997267 172.280989 76.882708 -6.447035 1.872018 -55.970625 -32.701227 -48.903375 16.411276 -1.838886 7.688728 4.074903 -4.980314 
-290.835135 0.000000 -365.886299 0.000000 269.254689 0.000000 -1.934656 90.917484 0.462986 88.111876 0.668290 179.965895 148.464587 -7.344576 171.745281 -72.286460 1.634940 -3.837992 72.659860 1.038949 -5.258560 21.454554 0.003083 0.000002 170.698287 -7.330101 -172.679106 -22.060445 -3.073602 0.952429 88.735235 -0.977116 -2.075711 21.454556 -0.003110 -0.000018 6.244485 -0.014499 1.304640 2.475485 -0.056280 2.608684 2.157753 -0.040397 2.608976 4.378993 8.278407 3.519926 -23.144108 -7.663943 8.467855 -151.236991 -80.553363 -30.724843 2.018077 63.037047 50.397971 -33.876324 -10.335471 1.006948 15.022869 9.228613 10.750606 172.031049 77.144750 -6.693209 0.041455 -55.484126 -30.171830 -51.441097 16.468712 -1.926684 7.376924 3.846134 -5.801171 
-290.555137 0.000000 -363.748084 0.000000 268.101468 0.000000 -2.080546 90.842453 0.467843 87.576282 0.770997 179.484003 146.474171 -7.065102 171.833694 -69.181551 1.111846 -3.562979 72.844677 1.018125 -4.771513 21.454553 0.003083 0.000002 171.520612 -7.152498 -172.801423 -22.009043 -3.090185 0.046159 89.717478 -0.311919 -1.898644 21.454555 -0.003110 -0.000017 6.128767 0.004058 1.501911 2.244443 -0.020274 3.003624 1.926819 -0.002005 3.003691 3.629923 8.278130 3.827549 -21.801995 -7.974529 8.846190 -148.422998 -80.203701 -33.590945 7.879591 63.135767 55.174782 -34.128105 -10.331814 1.011981 15.343969 9.271813 11.316782 171.868923 77.405095 -6.849955 -1.634396 -54.977417 -27.539088 -54.115523 16.396438 -2.012311 6.999734 3.497584 -6.649820 
-290.273469 0.000000 -361.579790 0.000000 266.974326 0.000000 -2.220955 90.641855 0.501468 87.025762 1.136549 178.942305 144.747239 -7.070320 171.801207 -65.540787 0.950955 -3.201726 73.384587 0.885962 -4.440277 21.454552 0.003094 -0.000000 172.195591 -7.197422 -172.938700 -22.246023 -3.113702 -0.797640 90.779557 0.300069 -1.764984 21.454556 -0.003110 -0.000016 5.999974 0.078998 1.722783 1.989083 0.129286 3.446642 1.671610 0.150218 3.445801 2.998218 8.329550 4.120053 -20.600183 -8.253512 9.202255 -146.580215 -79.990438 -35.469153 14.262462 63.041634 60.021024 -34.488270 -10.504458 1.030615 15.672201 9.293531 11.958667 171.605649 77.564145 -7.113171 -2.919880 -54.396373 -25.079868 -56.854234 16.222743 -2.096800 6.418660 3.312188 -7.481673 
-289.996382 0.000000 -359.387236 0.000000 265.884041 0.000000 -2.357153 90.373734 0.555736 86.519419 1.592587 178.338510 143.399151 -7.254192 171.995501 -61.238908 0.768728 -2.956806 73.814734 0.688486 -4.639559 21.454553 0.003104 -0.000002 172.913752 -7.327190 -173.391018 -22.511383 -3.091195 -1.442770 91.857021 0.768926 -1.652136 21.454558 -0.003111 -0.000016 5.881440 0.177073 1.951560 1.755628 0.325619 3.905504 1.438332 0.349306 3.903477 2.580498 8.276022 4.420184 -19.742728 -8.382055 9.498349 -145.213055 -79.835227 -36.863036 20.642497 62.736426 64.568993 -34.851186 -10.667440 1.049940 15.583613 9.050186 11.918893 171.229030 77.597897 -7.495951 -3.946693 -53.712121 -22.740950 -59.584124 15.920237 -2.178063 5.798708 3.348845 -8.188095 
-289.727266 0.000000 -357.176113 0.000000 264.837422 0.000000 -2.491661 90.099857 0.623399 86.102585 1.937240 177.698517 142.532162 -7.464476 172.655939 -56.134263 0.249304 -3.042394 73.666121 0.497175 -5.547197 21.454552 0.003101 -0.000002 173.842306 -7.352558 -174.358362 -22.564442 -2.974881 -1.801874 92.896006 1.037416 -1.541642 21.454558 -0.003114 -0.000017 5.797738 0.259773 2.167306 1.591980 0.490955 4.337863 1.274861 0.517243 4.334840 2.352876 7.982859 4.740029 -19.339761 -8.293357 9.710945 -143.730732 -79.628574 -38.375442 26.476363 62.299319 68.422514 -35.128989 -10.641198 1.055003 14.772674 8.296340 10.640498 170.747720 77.522614 -7.988966 -4.870600 -52.934264 -20.441100 -62.218281 15.478658 -2.250041 5.306235 3.579943 -8.666605 
-289.470076 0.000000 -354.947033 0.000000 263.838354 0.000000 -2.617362 89.832474 0.690730 85.733666 2.165722 177.128314 142.180837 -7.611497 173.230741 -50.144902 -0.192606 -3.245483 73.376550 0.329174 -6.524998 21.454551 0.003091 -0.000001 174.939969 -7.202808 -175.541012 -22.391008 -2.763106 -2.004080 93.866906 1.192073 -1.446598 21.454557 -0.003115 -0.000018 5.734381 0.329059 2.351615 1.468915 0.629610 4.707082 1.151965 0.658122 4.703223 2.185241 7.557552 5.052078 -19.217721 -8.145699 9.888318 -142.232033 -79.371191 -39.906988 31.810884 61.757776 71.605270 -35.424823 -10.605248 1.058770 14.047816 7.629478 9.353278 170.045905 77.439314 -8.707029 -5.636261 -52.252008 -18.258814 -64.619128 15.011649 -2.309827 4.805114 3.827412 -8.900452 
-289.229149 0.000000 -352.698419 0.000000 262.893659 0.000000 -2.728222 89.569149 0.747265 85.367248 2.327172 176.725573 142.329520 -7.641303 173.184986 -43.299718 -0.167114 -3.301032 73.394337 0.237007 -6.933689 21.454549 0.003082 -0.000001 176.124001 -6.881054 -176.566374 -22.045606 -2.496998 -2.203354 94.745581 1.339119 -1.368745 21.454556 -0.003112 -0.000017 5.672692 0.396620 2.490336 1.349271 0.765661 4.984990 1.032466 0.795847 4.980306 1.964347 7.133970 5.324597 -19.190871 -8.106600 10.077854 -140.855733 -79.099989 -41.316128 36.728011 61.136252 74.250329 -35.806359 -10.736738 1.075663 14.108732 7.665340 9.174631 169.025182 77.443851 -9.746995 -6.187778 -51.852972 -16.271231 -66.680875 14.635122 -2.365255 4.121501 3.959775 -8.878800 
-289.006247 0.000000 -350.430894 0.000000 262.014124 0.000000 -2.822617 89.298210 0.807237 85.025032 2.482371 176.490908 142.811509 -7.537282 172.842117 -36.031532 0.117495 -3.511948 73.320611 0.391073 -6.931000 21.454550 0.003084 -0.000001 177.362336 -6.521089 -177.277478 -21.630313 -2.335466 -2.440052 95.504642 1.517086 -1.246255 21.454557 -0.003108 -0.000016 5.616021 0.472063 2.584219 1.240010 0.917981 5.173221 0.923300 0.949299 5.167616 1.743338 6.705190 5.546634 -19.305308 -8.147201 10.256623 -139.360963 -78.867983 -42.844943 40.970027 60.598488 76.624721 -36.006215 -10.845185 1.087828 14.346980 7.998835 9.152490 167.833989 77.532997 -10.957009 -6.546192 -51.716689 -14.511188 -68.464729 14.350011 -2.418756 3.225511 4.193829 -8.537257 
